<?xml version="1.0" standalone="no"?>
<!DOCTYPE svg PUBLIC "-//W3C//DTD SVG 20010904//EN"
 "http://www.w3.org/TR/2001/REC-SVG-20010904/DTD/svg10.dtd">
<svg version="1.0" xmlns="http://www.w3.org/2000/svg"
 width="1050.000000pt" height="855.000000pt" viewBox="0 0 1050.000000 855.000000"
 preserveAspectRatio="xMidYMid meet">

<g transform="translate(0.000000,855.000000) scale(0.100000,-0.100000)"
fill="#000000" stroke="none">
<path d="M1300 8356 c-6 -8 -10 -25 -8 -38 4 -30 56 -38 75 -12 17 23 16 29
-3 48 -19 20 -48 20 -64 2z"/>
<path d="M1422 8178 l3 -163 38 -3 c28 -2 37 1 37 12 0 13 3 13 28 0 40 -21
77 -17 111 12 87 73 43 230 -65 227 -19 -1 -44 -9 -55 -19 -19 -17 -19 -16
-19 39 l0 57 -40 0 -40 0 2 -162z m168 2 c24 -24 25 -48 4 -78 -28 -41 -94
-19 -94 31 0 31 27 67 51 67 10 0 28 -9 39 -20z"/>
<path d="M1085 8318 c-3 -8 -4 -79 -3 -158 l3 -145 85 0 85 0 3 28 c3 26 2 27
-47 27 l-50 0 -3 128 -3 127 -33 3 c-20 2 -34 -2 -37 -10z"/>
<path d="M490 8215 c-140 -87 -166 -111 -156 -143 6 -18 294 -202 317 -202 16
0 279 160 279 170 0 4 -7 11 -16 14 -24 9 -28 7 -15 -7 9 -11 -15 -30 -116
-91 -124 -76 -153 -85 -153 -48 0 26 15 37 163 127 70 42 127 80 127 85 0 4
-7 13 -15 20 -30 25 -258 160 -269 159 -6 0 -72 -38 -146 -84z m286 -7 c105
-64 132 -84 122 -93 -7 -7 -70 -46 -140 -89 -90 -54 -129 -84 -135 -102 l-8
-25 -135 83 c-137 84 -157 107 -119 131 13 8 40 -4 124 -52 58 -35 109 -61
111 -58 3 2 -43 32 -102 67 -59 34 -102 65 -98 70 9 9 236 149 242 150 2 0 64
-37 138 -82z"/>
<path d="M9093 8290 c-32 -13 -34 -42 -31 -352 2 -211 6 -280 16 -290 10 -10
123 -14 530 -16 284 -2 531 0 548 3 52 9 55 29 52 348 -2 218 -6 289 -16 299
-10 10 -124 13 -545 15 -296 1 -542 -2 -554 -7z m1082 -325 l0 -300 -540 0
-540 0 -3 290 c-1 159 0 295 3 302 3 11 115 13 542 11 l538 -3 0 -300z"/>
<path d="M9760 7975 c0 -107 1 -115 19 -115 14 0 21 8 23 27 4 37 20 38 41 3
10 -17 27 -30 38 -30 25 0 24 4 -6 48 -31 46 -31 50 2 84 l27 28 -25 0 c-15 0
-34 -12 -51 -32 l-27 -33 -1 68 c0 60 -2 67 -20 67 -19 0 -20 -7 -20 -115z"/>
<path d="M9240 7969 l0 -111 61 4 c45 3 65 10 75 23 18 24 18 59 0 74 -12 10
-12 16 -1 37 27 53 -6 84 -91 84 l-44 0 0 -111z m94 68 c25 -19 10 -47 -25
-47 -26 0 -29 4 -29 30 0 33 22 40 54 17z m13 -93 c9 -24 -10 -49 -41 -52 -24
-3 -26 0 -26 32 0 33 2 36 30 36 19 0 33 -6 37 -16z"/>
<path d="M9455 8008 c-29 -16 -35 -28 -35 -70 0 -58 53 -93 102 -67 31 16 38
28 38 69 0 41 -7 53 -37 69 -27 14 -42 14 -68 -1z m54 -27 c28 -18 13 -91 -19
-91 -18 0 -33 23 -33 50 0 27 15 50 33 50 3 0 11 -4 19 -9z"/>
<path d="M9625 8008 c-29 -16 -35 -28 -35 -70 0 -58 53 -93 102 -67 31 16 38
28 38 69 0 41 -7 53 -37 69 -27 14 -42 14 -68 -1z m54 -27 c28 -18 13 -91 -19
-91 -18 0 -33 23 -33 50 0 27 15 50 33 50 3 0 11 -4 19 -9z"/>
<path d="M9940 8002 c-33 -27 -19 -59 31 -72 21 -6 39 -15 39 -21 0 -17 -31
-22 -56 -9 -13 8 -27 10 -31 6 -12 -12 36 -46 63 -46 24 0 64 31 64 49 0 17
-29 39 -60 46 -16 4 -30 13 -30 21 0 17 31 19 47 3 6 -6 19 -9 29 -7 17 3 17
5 -4 26 -27 27 -62 28 -92 4z"/>
<path d="M1984 8263 c-12 -2 -34 -18 -50 -34 -25 -26 -29 -38 -29 -89 0 -72
24 -111 80 -125 29 -7 43 -6 65 7 24 14 29 14 34 2 3 -8 20 -14 41 -14 l35 0
0 125 0 125 -40 0 c-22 0 -40 -4 -40 -9 0 -6 -16 -3 -35 5 -19 7 -36 13 -37
13 -2 -1 -13 -4 -24 -6z m77 -73 c14 -8 19 -21 19 -48 0 -45 -14 -62 -52 -62
-45 0 -65 64 -31 102 18 20 36 23 64 8z"/>
<path d="M1292 8138 l3 -123 38 -3 37 -3 0 125 0 126 -40 0 -41 0 3 -122z"/>
<path d="M1722 8138 l3 -123 38 -3 37 -3 0 66 c0 82 11 105 50 105 28 0 30 2
30 40 0 45 -18 52 -58 24 -20 -14 -22 -14 -22 0 0 12 -10 16 -40 16 l-41 0 3
-122z"/>
<path d="M2220 8135 l0 -125 35 0 35 0 0 66 c0 81 11 104 50 104 28 0 30 2 30
40 0 45 -14 51 -55 24 -23 -15 -25 -15 -25 0 0 12 -9 16 -35 16 l-35 0 0 -125z"/>
<path d="M2390 8236 c5 -14 27 -67 49 -120 l41 -94 -25 -54 c-34 -72 -33 -80
12 -76 l38 3 46 110 c25 61 60 143 77 183 l31 72 -42 0 -42 0 -24 -70 c-13
-38 -27 -70 -30 -70 -4 0 -18 32 -31 70 l-24 70 -43 0 c-41 0 -42 -1 -33 -24z"/>
<path d="M6390 7970 c0 -103 1 -110 20 -110 17 0 20 7 20 50 l0 50 45 0 45 0
0 -50 c0 -43 3 -50 20 -50 19 0 20 7 20 110 0 103 -1 110 -20 110 -17 0 -20
-7 -20 -45 l0 -45 -45 0 -45 0 0 45 c0 38 -3 45 -20 45 -19 0 -20 -7 -20 -110z"/>
<path d="M7713 8070 c-31 -13 -43 -41 -43 -103 0 -66 20 -95 70 -103 27 -4 42
-1 63 16 29 23 36 50 12 50 -8 0 -24 -9 -35 -20 -24 -24 -30 -24 -55 -6 -14
10 -19 26 -19 66 0 40 5 56 19 66 25 18 31 18 55 -6 23 -23 50 -26 50 -6 0 20
-48 56 -74 55 -11 0 -31 -4 -43 -9z"/>
<path d="M8210 8040 c0 -11 -4 -20 -10 -20 -5 0 -10 -7 -10 -15 0 -8 5 -15 10
-15 6 0 10 -22 10 -49 0 -53 17 -81 51 -81 22 0 26 25 4 34 -10 4 -15 20 -15
51 0 33 4 45 15 45 8 0 15 7 15 15 0 8 -7 15 -15 15 -8 0 -15 9 -15 20 0 13
-7 20 -20 20 -13 0 -20 -7 -20 -20z"/>
<path d="M8630 8040 c0 -11 -4 -20 -10 -20 -5 0 -10 -7 -10 -15 0 -8 5 -15 10
-15 6 0 10 -24 10 -53 0 -55 12 -77 41 -77 25 0 35 21 15 32 -18 10 -24 98 -6
98 6 0 10 7 10 15 0 8 -4 15 -10 15 -5 0 -10 9 -10 20 0 13 -7 20 -20 20 -13
0 -20 -7 -20 -20z"/>
<path d="M6619 8001 c-18 -14 -24 -29 -24 -61 0 -32 6 -47 24 -61 52 -42 116
-9 116 61 0 47 -29 80 -70 80 -13 0 -33 -9 -46 -19z m70 -25 c17 -20 10 -67
-11 -79 -23 -15 -48 8 -48 42 0 45 35 66 59 37z"/>
<path d="M6770 7940 c0 -64 3 -80 15 -80 11 0 15 13 15 54 0 56 17 83 45 72
11 -4 15 -21 15 -66 0 -53 2 -60 20 -60 16 0 19 8 22 63 3 54 5 62 23 62 18 0
20 -8 23 -62 3 -55 6 -63 22 -63 18 0 20 7 20 64 0 83 -31 117 -79 87 -9 -6
-23 -5 -38 2 -16 7 -30 7 -48 -1 -15 -7 -25 -8 -25 -2 0 6 -7 10 -15 10 -12 0
-15 -16 -15 -80z"/>
<path d="M7051 8003 c-12 -10 -24 -35 -27 -55 -5 -30 -2 -41 19 -62 15 -14 37
-26 50 -26 30 0 62 23 53 39 -6 9 -11 9 -22 0 -11 -9 -21 -9 -39 -1 -40 18
-29 32 25 32 47 0 50 2 50 25 0 55 -66 83 -109 48z m67 -30 c2 -9 -7 -13 -28
-13 -28 0 -31 2 -20 15 15 18 41 16 48 -2z"/>
<path d="M7885 7995 c-16 -15 -25 -36 -25 -55 0 -38 39 -80 73 -80 44 0 72 32
71 81 -2 74 -69 104 -119 54z m74 -19 c17 -20 10 -67 -11 -79 -23 -15 -48 8
-48 42 0 45 35 66 59 37z"/>
<path d="M8040 7940 c0 -64 3 -80 15 -80 11 0 15 13 15 54 0 56 17 83 45 72
11 -4 15 -21 15 -66 0 -53 2 -60 20 -60 18 0 20 7 20 64 0 86 -27 114 -81 86
-13 -7 -19 -7 -19 0 0 5 -7 10 -15 10 -12 0 -15 -16 -15 -80z"/>
<path d="M8319 8000 l-24 -20 44 3 c28 1 45 -3 48 -10 3 -8 -4 -13 -19 -13
-34 0 -68 -27 -68 -55 0 -31 22 -42 83 -43 l47 0 0 59 c0 46 -5 64 -20 79 -25
25 -61 26 -91 0z m69 -82 c-4 -30 -48 -39 -48 -10 0 10 3 22 7 25 3 4 15 7 25
7 14 0 19 -6 16 -22z"/>
<path d="M8485 7995 c-16 -15 -25 -36 -25 -55 0 -35 38 -80 68 -80 25 0 70 36
59 46 -4 5 -17 3 -28 -4 -35 -22 -59 -6 -59 38 0 24 5 40 15 44 18 6 45 -2 45
-15 0 -5 7 -9 15 -9 22 0 18 27 -7 44 -32 22 -55 20 -83 -9z"/>
<path d="M351 7954 c-39 -49 -35 -54 171 -178 126 -77 127 -77 157 -62 39 21
41 20 41 -10 l0 -25 30 18 c23 13 30 25 30 48 0 27 8 35 75 75 41 24 75 48 75
52 0 4 -10 13 -22 19 -21 11 -22 11 -9 -5 8 -9 12 -18 10 -20 -2 -1 -33 -20
-68 -41 -42 -25 -66 -34 -69 -27 -2 7 -9 12 -15 12 -8 0 -7 -4 1 -12 20 -20
15 -76 -8 -88 -18 -9 -20 -8 -20 15 0 30 -4 31 -45 5 -28 -17 -34 -18 -45 -6
-23 28 1 52 130 130 145 88 160 101 140 119 -10 10 -12 9 -7 -4 4 -13 -21 -33
-106 -84 -146 -88 -177 -112 -177 -136 0 -16 -22 -5 -132 62 -164 100 -166
103 -122 144 15 14 22 25 16 25 -6 0 -20 -12 -31 -26z"/>
<path d="M1747 7853 c-4 -3 -7 -19 -7 -35 0 -25 -2 -27 -18 -17 -49 30 -104
-27 -81 -83 12 -29 31 -37 87 -36 l32 1 0 89 c0 88 -1 94 -13 81z m-12 -107
c0 -30 -5 -40 -21 -47 -45 -16 -85 46 -52 79 7 7 26 12 43 10 28 -3 30 -6 30
-42z"/>
<path d="M2050 7825 c0 -32 -2 -35 -19 -25 -47 25 -91 -3 -91 -57 0 -50 45
-77 91 -53 13 7 19 7 19 0 0 -5 5 -10 10 -10 6 0 10 35 10 84 0 47 -4 88 -10
91 -6 4 -10 -8 -10 -30z m-10 -55 c22 -42 -19 -92 -59 -71 -23 13 -31 40 -20
69 11 30 64 31 79 2z"/>
<path d="M1080 7765 c0 -50 4 -85 10 -85 6 0 10 16 10 35 0 30 3 35 24 35 14
0 28 5 31 10 4 6 -7 10 -24 10 -28 0 -31 3 -31 30 0 28 3 30 35 30 19 0 35 5
35 10 0 6 -20 10 -45 10 l-45 0 0 -85z"/>
<path d="M2160 7841 c0 -6 5 -11 10 -11 6 0 10 -32 10 -75 0 -45 4 -75 10 -75
7 0 10 30 8 82 -3 70 -6 83 -20 86 -10 2 -18 -1 -18 -7z"/>
<path d="M2247 7832 c-33 -36 -8 -92 41 -92 35 0 35 18 0 22 -26 2 -34 8 -36
26 -4 25 13 52 32 52 26 -1 40 -21 42 -62 4 -61 -3 -78 -33 -78 -14 0 -32 8
-40 18 -13 16 -14 16 -11 -2 4 -26 30 -40 61 -32 44 11 60 110 25 154 -15 18
-63 15 -81 -6z"/>
<path d="M2392 7838 c-7 -7 -12 -27 -12 -45 0 -42 35 -63 75 -45 28 13 29 13
15 -22 -11 -31 -53 -36 -69 -8 -9 14 -10 14 -11 2 -1 -42 59 -54 84 -18 23 32
21 110 -2 131 -22 20 -63 22 -80 5z m68 -12 c19 -24 8 -61 -19 -64 -29 -4 -53
22 -44 46 12 33 43 41 63 18z"/>
<path d="M2530 7798 c0 -49 1 -50 18 -35 35 32 77 11 70 -35 -4 -30 -53 -38
-74 -11 -12 16 -13 17 -14 1 0 -21 33 -40 63 -36 12 2 28 15 36 30 12 21 13
31 3 53 -11 24 -17 27 -52 23 -36 -3 -40 -1 -40 19 0 20 5 23 39 23 22 0 43 5
46 10 4 6 -13 10 -44 10 l-51 0 0 -52z"/>
<path d="M1211 7791 c-26 -26 -27 -72 -3 -94 57 -51 140 21 95 82 -26 33 -65
39 -92 12z m77 -13 c35 -35 -14 -102 -57 -78 -15 7 -21 21 -21 44 0 18 3 36 7
39 11 11 58 8 71 -5z"/>
<path d="M1348 7804 c-14 -13 -9 -79 8 -102 16 -24 58 -30 70 -10 5 8 2 9 -10
5 -34 -13 -55 10 -58 64 -2 28 -6 47 -10 43z"/>
<path d="M1438 7758 c-5 -57 -1 -78 13 -78 5 0 9 29 9 65 0 78 -16 87 -22 13z"/>
<path d="M1490 7745 c0 -78 16 -87 22 -12 5 56 1 77 -13 77 -5 0 -9 -29 -9
-65z"/>
<path d="M1524 7799 c-4 -7 0 -9 14 -5 31 10 52 -18 52 -70 0 -24 5 -44 10
-44 16 0 12 83 -6 108 -16 23 -58 30 -70 11z"/>
<path d="M1810 7790 c-56 -56 21 -143 86 -96 10 8 15 18 11 22 -4 5 -11 4 -15
-2 -13 -21 -49 -25 -66 -9 -27 27 -18 35 39 35 l55 0 -11 27 c-6 15 -16 31
-22 35 -22 14 -57 8 -77 -12z m88 -28 c2 -8 -12 -12 -42 -12 -46 0 -53 5 -38
26 18 27 69 18 80 -14z"/>
<path d="M2580 7490 c-11 -11 -20 -24 -20 -29 0 -16 30 -41 49 -41 40 0 57 61
22 80 -26 13 -28 13 -51 -10z"/>
<path d="M3340 7430 c0 -72 2 -80 19 -80 23 0 31 26 31 103 0 54 -1 57 -25 57
-25 0 -25 -1 -25 -80z"/>
<path d="M6880 7430 l0 -80 -35 17 c-72 34 -144 -16 -159 -112 -22 -132 81
-248 164 -186 35 25 40 26 40 6 0 -10 11 -15 35 -15 l35 0 0 225 0 225 -40 0
-40 0 0 -80z m-12 -132 c7 -7 12 -41 12 -83 0 -80 -9 -95 -56 -95 -41 0 -56
19 -62 79 -6 68 17 111 61 111 18 0 38 -5 45 -12z"/>
<path d="M7550 7430 c0 -44 -2 -80 -3 -80 -2 0 -18 7 -36 16 -59 30 -124 0
-150 -69 -6 -16 -11 -52 -11 -82 0 -30 5 -66 11 -82 27 -72 93 -100 153 -65
28 17 35 18 40 6 3 -8 19 -14 36 -14 l30 0 0 225 0 225 -35 0 -35 0 0 -80z
m-16 -136 c11 -11 16 -35 16 -79 0 -70 -14 -95 -55 -95 -41 0 -54 11 -66 52
-12 45 -4 95 19 121 19 21 65 22 86 1z"/>
<path d="M8530 7285 l0 -225 35 0 35 0 0 225 0 225 -35 0 -35 0 0 -225z"/>
<path d="M8710 7502 c-35 -11 -40 -56 -10 -72 39 -21 78 9 65 50 -6 20 -32 29
-55 22z"/>
<path d="M1231 7468 c-5 -13 -27 -72 -49 -133 -22 -60 -54 -147 -71 -192 l-30
-83 43 0 c43 0 45 1 58 43 l15 42 80 3 81 3 14 -43 c14 -41 17 -43 58 -46 32
-2 41 0 38 10 -3 7 -38 104 -79 215 l-74 203 -38 0 c-30 0 -39 -5 -46 -22z
m79 -171 c12 -38 20 -70 17 -73 -3 -3 -27 -4 -55 -2 l-50 3 25 79 c13 43 28
74 33 70 4 -5 18 -40 30 -77z"/>
<path d="M5060 7420 c0 -33 -3 -40 -20 -40 -16 0 -20 -7 -20 -30 0 -23 5 -30
19 -30 18 0 20 -10 23 -111 3 -107 4 -112 31 -135 46 -40 107 -30 107 16 0 24
-5 29 -27 32 l-28 3 -3 98 -3 97 26 0 c21 0 25 5 25 30 0 25 -4 30 -25 30 -22
0 -25 4 -25 40 l0 40 -40 0 -40 0 0 -40z"/>
<path d="M1500 7220 l0 -160 40 0 40 0 0 113 c0 125 5 137 57 137 45 0 53 -24
53 -151 l0 -99 35 0 35 0 0 109 c0 121 8 141 59 141 46 0 51 -15 51 -137 l0
-113 40 0 40 0 0 115 c0 133 -13 179 -57 196 -37 14 -90 5 -117 -20 -21 -19
-21 -19 -50 6 -24 21 -37 24 -69 20 -21 -3 -47 -13 -58 -23 -19 -17 -20 -17
-26 4 -4 17 -13 22 -39 22 l-34 0 0 -160z"/>
<path d="M2094 7366 c-101 -44 -113 -230 -20 -287 63 -39 151 -34 191 11 17
19 17 21 0 40 -16 17 -20 18 -38 5 -36 -25 -92 -19 -116 11 -12 15 -21 31 -21
35 0 5 45 9 100 9 l100 0 0 43 c0 109 -98 176 -196 133z m104 -68 c7 -7 12
-20 12 -30 0 -15 -9 -18 -60 -18 -33 0 -60 3 -60 8 0 4 7 18 16 30 17 25 71
31 92 10z"/>
<path d="M2340 7220 l0 -160 40 0 40 0 0 104 c0 114 4 123 63 135 29 6 32 10
32 41 0 43 -25 51 -66 21 -29 -21 -29 -21 -29 -1 0 17 -6 20 -40 20 l-40 0 0
-160z"/>
<path d="M2570 7220 l0 -160 40 0 40 0 0 160 0 160 -40 0 -40 0 0 -160z"/>
<path d="M2794 7366 c-17 -8 -42 -29 -55 -47 -20 -28 -24 -46 -24 -106 0 -82
17 -115 76 -146 61 -32 152 -7 177 49 18 38 15 44 -23 44 -24 0 -37 -6 -45
-20 -7 -14 -21 -20 -45 -20 -45 0 -65 29 -65 95 0 63 20 95 60 95 28 0 60 -22
60 -41 0 -5 16 -9 35 -9 40 0 44 13 20 59 -27 53 -107 75 -171 47z"/>
<path d="M3103 7369 c-33 -9 -73 -51 -73 -75 0 -23 73 -18 88 6 24 38 92 16
92 -31 0 -16 -7 -19 -42 -20 -68 -1 -111 -21 -131 -60 -43 -84 47 -168 134
-125 22 11 36 13 43 6 5 -5 26 -10 46 -10 l35 0 -6 122 c-3 71 -11 133 -18
146 -24 44 -97 62 -168 41z m107 -199 c0 -40 -40 -67 -78 -54 -59 21 -30 84
39 84 37 0 39 -2 39 -30z"/>
<path d="M3473 7365 c-38 -16 -53 -42 -53 -89 0 -42 32 -71 94 -86 56 -14 70
-23 74 -48 6 -41 -95 -42 -105 -2 -4 15 -14 20 -39 20 -41 0 -45 -23 -14 -63
45 -56 158 -60 212 -7 30 30 35 55 17 93 -13 30 -31 40 -102 61 -32 9 -60 23
-64 32 -15 40 66 62 89 24 9 -14 24 -20 50 -20 44 0 45 3 18 47 -29 49 -112
67 -177 38z"/>
<path d="M3880 7220 l0 -160 40 0 40 0 0 113 c0 125 5 137 57 137 45 0 53 -24
53 -151 l0 -99 35 0 35 0 0 109 c0 121 8 141 59 141 46 0 51 -15 51 -137 l0
-113 40 0 40 0 0 115 c0 133 -13 179 -57 196 -37 14 -90 5 -117 -20 -21 -19
-21 -19 -50 6 -24 21 -37 24 -69 20 -21 -3 -47 -13 -58 -23 -19 -17 -20 -17
-26 4 -4 17 -13 22 -39 22 l-34 0 0 -160z"/>
<path d="M4470 7363 c-54 -28 -80 -75 -80 -145 0 -33 7 -72 15 -88 47 -92 179
-106 240 -25 54 70 38 206 -29 250 -39 26 -105 29 -146 8z m114 -75 c10 -13
16 -43 16 -73 0 -65 -20 -95 -64 -95 -49 0 -70 29 -70 95 0 38 5 60 18 74 26
29 80 28 100 -1z"/>
<path d="M4795 7366 c-38 -16 -53 -35 -61 -73 -9 -44 27 -79 106 -106 45 -15
66 -28 68 -41 9 -43 -77 -52 -104 -10 -13 19 -24 24 -48 22 -25 -2 -30 -7 -28
-23 9 -54 84 -91 158 -80 61 9 98 42 98 88 0 50 -33 82 -98 98 -59 14 -76 24
-76 49 0 34 73 42 90 10 16 -29 80 -29 80 0 0 60 -110 99 -185 66z"/>
<path d="M5458 7364 c-22 -9 -42 -28 -52 -47 l-15 -32 34 -3 c24 -2 40 3 54
17 23 23 61 27 79 9 7 -7 12 -22 12 -35 0 -19 -5 -23 -33 -23 -87 0 -147 -41
-147 -100 0 -78 75 -121 148 -85 24 11 38 13 40 6 2 -6 20 -11 40 -11 l37 0
-3 117 c-2 64 -8 127 -12 139 -20 53 -114 78 -182 48z m112 -194 c0 -36 -38
-65 -74 -56 -31 8 -40 33 -21 62 12 19 24 24 55 24 38 0 40 -2 40 -30z"/>
<path d="M5700 7373 c0 -5 18 -75 38 -158 l38 -150 33 0 34 0 28 93 c15 52 30
96 32 99 3 2 17 -35 32 -84 14 -48 28 -94 30 -101 3 -8 17 -12 37 -10 l32 3
38 150 c20 83 38 153 38 158 0 4 -16 7 -35 7 -38 0 -34 8 -60 -119 -22 -107
-19 -109 -58 29 -23 81 -26 85 -52 85 -26 0 -29 -4 -52 -85 -39 -138 -36 -136
-58 -29 -26 127 -22 119 -60 119 -19 0 -35 -3 -35 -7z"/>
<path d="M6230 7369 c-35 -14 -70 -49 -70 -71 0 -26 60 -25 83 2 32 37 87 20
87 -27 0 -19 -5 -23 -32 -23 -86 0 -148 -43 -148 -102 0 -40 15 -65 50 -83 37
-19 67 -19 105 1 19 10 31 11 33 5 2 -6 20 -11 40 -11 l37 0 -3 122 c-4 138
-13 161 -67 184 -39 16 -79 17 -115 3z m100 -203 c0 -28 -5 -36 -31 -46 -37
-16 -62 -5 -67 29 -5 33 16 51 59 51 38 0 39 -1 39 -34z"/>
<path d="M6480 7220 l0 -160 40 0 40 0 0 104 c0 114 4 123 63 135 29 6 32 10
32 41 0 43 -25 51 -66 21 -29 -21 -29 -21 -29 -1 0 17 -6 20 -40 20 l-40 0 0
-160z"/>
<path d="M7115 7366 c-61 -28 -80 -60 -83 -145 -4 -72 -2 -79 24 -110 51 -61
117 -75 192 -41 45 20 51 34 28 65 -14 19 -15 19 -33 2 -20 -17 -67 -22 -98
-11 -8 4 -22 19 -31 35 l-15 29 101 0 100 0 0 48 c0 26 -6 58 -13 71 -29 57
-113 85 -172 57z m99 -72 c33 -32 20 -44 -49 -44 -65 0 -66 0 -54 23 7 12 17
25 23 29 19 13 64 9 80 -8z"/>
<path d="M7933 7373 c-50 -10 -103 -91 -103 -158 0 -42 22 -95 51 -124 60 -60
175 -47 221 27 28 46 30 144 2 191 -31 52 -100 78 -171 64z m91 -78 c40 -41
27 -159 -19 -171 -38 -9 -70 3 -83 31 -22 49 -11 125 22 147 19 13 64 9 80 -7z"/>
<path d="M8190 7220 l0 -160 35 0 34 0 3 117 c3 117 3 118 29 127 14 5 38 6
53 2 l26 -6 0 -120 0 -120 41 0 41 0 -4 134 c-3 114 -6 137 -22 155 -27 30
-81 37 -122 17 -42 -20 -44 -20 -44 -1 0 10 -11 15 -35 15 l-35 0 0 -160z"/>
<path d="M8690 7220 l0 -160 35 0 35 0 0 160 0 160 -35 0 -35 0 0 -160z"/>
<path d="M8840 7220 l0 -160 40 0 40 0 0 113 c0 125 5 137 57 137 45 0 53 -21
53 -144 l0 -106 41 0 41 0 -4 128 c-4 135 -13 162 -55 181 -33 15 -63 14 -97
-4 -36 -19 -46 -19 -46 0 0 10 -11 15 -35 15 l-35 0 0 -160z"/>
<path d="M9255 7366 c-61 -28 -80 -60 -83 -145 -4 -72 -2 -79 24 -110 51 -61
117 -75 192 -41 45 20 51 34 28 65 -14 19 -15 19 -33 2 -20 -17 -67 -22 -98
-11 -8 4 -22 19 -31 35 l-15 29 101 0 100 0 0 48 c0 26 -6 58 -13 71 -29 57
-113 85 -172 57z m99 -72 c33 -32 20 -44 -49 -44 -65 0 -66 0 -54 23 7 12 17
25 23 29 19 13 64 9 80 -8z"/>
<path d="M6183 6786 c-36 -16 -48 -35 -58 -89 -5 -27 -12 -37 -26 -37 -14 0
-19 -7 -19 -30 0 -23 4 -30 20 -30 19 0 20 -7 20 -130 l0 -130 40 0 40 0 0
130 0 130 30 0 c27 0 30 3 30 30 0 27 -3 30 -30 30 -25 0 -30 4 -30 23 0 31
18 47 53 47 26 0 28 3 25 33 -3 28 -7 32 -33 34 -16 2 -44 -4 -62 -11z"/>
<path d="M3220 6565 l0 -225 40 0 40 0 0 225 0 225 -40 0 -40 0 0 -225z"/>
<path d="M3396 6777 c-38 -27 2 -95 42 -71 24 16 28 55 6 71 -10 7 -21 13 -24
13 -3 0 -14 -6 -24 -13z"/>
<path d="M3540 6565 l0 -225 35 0 c24 0 35 5 35 15 0 12 6 11 33 -5 39 -24 59
-25 102 -4 50 23 68 70 63 165 -3 70 -6 81 -32 108 -37 39 -84 48 -127 27 -18
-9 -34 -16 -36 -16 -1 0 -3 36 -3 80 l0 80 -35 0 -35 0 0 -225z m174 10 c30
-30 32 -127 4 -162 -15 -18 -74 -16 -92 3 -11 11 -16 35 -16 79 0 44 5 68 16
79 20 20 68 21 88 1z"/>
<path d="M5420 6565 l0 -225 40 0 40 0 0 225 0 225 -40 0 -40 0 0 -225z"/>
<path d="M5920 6700 c0 -36 -2 -40 -25 -40 -21 0 -25 -5 -25 -30 0 -25 4 -30
25 -30 l25 0 0 -109 c0 -133 11 -153 81 -155 43 -1 44 0 47 32 3 28 1 32 -22
32 -32 0 -38 21 -34 120 3 74 4 75 31 78 23 3 27 8 27 33 0 26 -3 29 -30 29
-28 0 -30 2 -30 40 0 39 -1 40 -35 40 -34 0 -35 -1 -35 -40z"/>
<path d="M3380 6500 l0 -160 40 0 40 0 0 160 0 160 -40 0 -40 0 0 -160z"/>
<path d="M3870 6500 l0 -160 40 0 40 0 0 104 c0 114 4 123 63 135 29 6 32 10
32 41 0 43 -25 51 -66 21 -29 -21 -29 -21 -29 -1 0 17 -6 20 -40 20 l-40 0 0
-160z"/>
<path d="M4153 6649 c-33 -9 -73 -51 -73 -75 0 -23 73 -18 88 6 16 27 57 26
76 -2 26 -37 20 -45 -46 -51 -71 -6 -109 -30 -122 -75 -12 -43 8 -87 49 -106
41 -20 62 -20 99 -1 20 11 33 12 40 5 5 -5 27 -10 47 -10 l38 0 -10 32 c-5 18
-9 76 -9 129 0 89 -2 98 -25 121 -36 36 -88 45 -152 27z m105 -201 c-4 -42
-47 -66 -84 -49 -52 23 -18 81 47 81 39 0 40 -1 37 -32z"/>
<path d="M4410 6500 l0 -160 35 0 35 0 0 104 c0 97 2 106 22 120 12 9 35 16
50 16 26 0 28 3 28 40 0 35 -3 40 -24 40 -13 0 -35 -9 -50 -21 l-26 -20 0 20
c0 17 -6 21 -35 21 l-35 0 0 -160z"/>
<path d="M4600 6656 c0 -3 25 -76 55 -162 49 -139 53 -160 42 -183 -8 -17 -22
-27 -40 -29 -25 -3 -28 -7 -25 -35 3 -30 5 -32 41 -31 24 1 46 9 59 21 10 11
48 103 83 204 35 101 66 192 70 202 6 15 1 17 -37 17 l-43 0 -24 -87 c-34
-126 -36 -127 -61 -42 -11 40 -25 85 -29 99 -6 21 -15 26 -49 28 -23 2 -42 1
-42 -2z"/>
<path d="M5080 6440 l0 -220 40 0 40 0 0 70 c0 39 3 70 8 70 4 0 16 -7 26 -15
45 -34 118 -6 147 58 65 143 -37 303 -155 242 -35 -18 -36 -18 -36 0 0 10 -11
15 -35 15 l-35 0 0 -220z m184 128 c10 -13 16 -43 16 -73 0 -65 -20 -95 -64
-95 -47 0 -56 15 -56 95 0 42 5 76 12 83 21 21 75 15 92 -10z"/>
<path d="M5643 6649 c-33 -9 -73 -51 -73 -75 0 -23 73 -18 88 6 24 38 92 16
92 -31 0 -16 -7 -19 -42 -20 -68 -1 -111 -21 -131 -60 -43 -84 47 -168 134
-125 22 11 36 13 43 6 5 -5 26 -10 46 -10 l35 0 -6 122 c-3 71 -11 133 -18
146 -24 44 -97 62 -168 41z m107 -199 c0 -40 -40 -67 -78 -54 -59 21 -30 84
39 84 37 0 39 -2 39 -30z"/>
<path d="M6403 6653 c-50 -10 -103 -91 -103 -158 0 -42 22 -95 51 -124 60 -60
175 -47 221 27 28 46 30 144 2 191 -31 52 -100 78 -171 64z m91 -78 c40 -41
27 -159 -19 -171 -38 -9 -70 3 -83 31 -22 49 -11 125 22 147 19 13 64 9 80 -7z"/>
<path d="M6660 6500 l0 -160 35 0 35 0 0 104 c0 97 2 106 22 120 12 9 35 16
50 16 26 0 28 3 28 40 0 35 -3 40 -24 40 -13 0 -35 -9 -50 -21 l-26 -20 0 20
c0 17 -6 21 -35 21 l-35 0 0 -160z"/>
<path d="M6870 6500 l0 -160 40 0 40 0 0 113 c0 124 5 137 55 137 50 0 55 -13
55 -137 l0 -113 40 0 40 0 0 114 c0 127 6 140 62 134 l33 -3 3 -122 3 -123 40
0 41 0 -4 135 c-3 124 -5 136 -26 157 -30 31 -99 32 -139 2 -28 -21 -30 -21
-41 -3 -18 29 -75 35 -122 11 -39 -19 -40 -19 -40 -1 0 15 -8 19 -40 19 l-40
0 0 -160z"/>
<path d="M5910 5610 l0 -150 25 0 c20 0 25 5 25 24 0 29 9 56 20 56 4 0 19
-18 34 -40 21 -32 32 -40 57 -40 l30 0 -41 61 -41 60 36 45 36 44 -29 0 c-22
0 -39 -10 -61 -35 -17 -19 -33 -35 -36 -35 -3 0 -5 36 -5 80 0 79 0 80 -25 80
l-25 0 0 -150z"/>
<path d="M2970 5700 c0 -49 0 -49 -24 -39 -56 26 -106 -20 -106 -96 0 -75 50
-122 105 -97 15 7 26 8 30 2 4 -6 15 -10 26 -10 18 0 19 8 19 145 l0 145 -25
0 c-23 0 -25 -3 -25 -50z m-19 -80 c29 -16 27 -95 -3 -111 -18 -10 -24 -8 -40
11 -22 27 -23 58 -2 88 17 25 19 26 45 12z"/>
<path d="M4160 5700 c0 -47 -1 -50 -19 -40 -56 30 -111 -12 -111 -85 0 -85 47
-133 106 -106 15 6 24 7 24 1 0 -6 11 -10 25 -10 l25 0 0 145 0 145 -25 0
c-23 0 -25 -3 -25 -50z m-19 -80 c14 -8 19 -21 19 -55 0 -34 -5 -47 -19 -55
-25 -13 -27 -13 -45 6 -9 8 -16 31 -16 49 0 18 7 41 16 49 18 19 20 19 45 6z"/>
<path d="M5250 5605 l0 -145 25 0 c14 0 25 4 25 9 0 5 13 4 29 -2 58 -22 101
20 101 99 0 75 -51 121 -106 95 -24 -10 -24 -10 -24 39 0 47 -2 50 -25 50
l-25 0 0 -145z m114 9 c9 -8 16 -31 16 -49 0 -18 -7 -41 -16 -49 -18 -19 -20
-19 -45 -6 -26 14 -27 94 -1 109 23 14 28 14 46 -5z"/>
<path d="M6740 5605 l0 -145 25 0 c24 0 25 2 25 74 0 81 16 110 48 89 13 -8
18 -28 20 -87 3 -73 4 -76 27 -76 25 0 25 1 25 85 0 72 -3 88 -20 105 -22 22
-51 26 -81 10 -18 -10 -19 -7 -19 40 0 47 -2 50 -25 50 l-25 0 0 -145z"/>
<path d="M7370 5605 c0 -136 1 -145 19 -145 11 0 21 5 23 11 2 7 12 7 30 -1
58 -27 108 18 108 95 0 76 -50 122 -106 96 -24 -10 -24 -10 -24 39 0 47 -2 50
-25 50 l-25 0 0 -145z m114 9 c32 -31 12 -114 -28 -114 -23 0 -36 24 -36 65 0
60 30 83 64 49z"/>
<path d="M2320 5600 l0 -140 25 0 c22 0 24 4 27 58 l3 57 53 3 c44 3 52 6 52
23 0 16 -7 19 -56 19 l-55 0 3 38 3 37 58 3 c49 3 57 6 57 22 0 18 -7 20 -85
20 l-85 0 0 -140z"/>
<path d="M2532 5718 c2 -15 10 -23 23 -23 13 0 21 8 23 23 3 18 -1 22 -23 22
-22 0 -26 -4 -23 -22z"/>
<path d="M6503 5724 c-3 -8 -1 -20 5 -26 16 -16 47 -5 50 20 3 18 -1 22 -23
22 -14 0 -28 -7 -32 -16z"/>
<path d="M7060 5600 l0 -140 85 0 c78 0 85 2 85 20 0 18 -7 20 -60 20 l-60 0
0 120 0 120 -25 0 -25 0 0 -140z"/>
<path d="M7264 5729 c-9 -16 21 -43 40 -36 9 4 16 16 16 27 0 15 -7 20 -24 20
-14 0 -28 -5 -32 -11z"/>
<path d="M6620 5695 c0 -16 -6 -25 -15 -25 -8 0 -15 -9 -15 -20 0 -11 7 -20
15 -20 12 0 15 -15 15 -75 0 -65 3 -76 21 -85 11 -6 30 -10 42 -8 29 4 34 34
8 43 -18 5 -21 15 -21 66 0 46 3 59 15 59 8 0 15 9 15 20 0 11 -7 20 -15 20
-9 0 -15 9 -15 25 0 20 -5 25 -25 25 -20 0 -25 -5 -25 -25z"/>
<path d="M2530 5565 l0 -105 25 0 25 0 0 105 0 105 -25 0 -25 0 0 -105z"/>
<path d="M2630 5565 l0 -105 25 0 c24 0 25 2 25 75 0 63 3 76 19 85 40 21 51
4 51 -81 l0 -79 30 0 30 0 0 63 c0 90 -15 135 -47 143 -15 4 -39 2 -55 -4 -16
-6 -28 -6 -28 -1 0 5 -11 9 -25 9 l-25 0 0 -105z"/>
<path d="M3150 5663 c0 -4 15 -51 33 -103 36 -102 37 -126 6 -135 -25 -8 -25
-45 0 -45 38 0 61 35 105 163 l44 127 -29 0 c-27 0 -30 -4 -46 -60 -9 -33 -19
-58 -22 -54 -3 3 -13 29 -21 57 -14 44 -20 52 -43 55 -15 2 -27 0 -27 -5z"/>
<path d="M3400 5657 c-31 -16 -50 -52 -50 -99 0 -51 33 -88 87 -95 37 -5 45
-2 73 25 25 25 30 38 30 77 0 82 -70 128 -140 92z m72 -44 c33 -30 13 -113
-28 -113 -17 0 -44 39 -44 65 0 24 26 65 42 65 6 0 20 -7 30 -17z"/>
<path d="M3582 5578 c3 -89 4 -93 30 -107 22 -13 33 -13 58 -4 16 6 30 7 30 2
0 -5 11 -9 25 -9 l25 0 0 105 0 105 -25 0 c-24 0 -25 -2 -25 -75 0 -63 -3 -76
-19 -85 -40 -21 -51 -4 -51 81 0 78 0 79 -25 79 l-26 0 3 -92z"/>
<path d="M3800 5565 l0 -105 25 0 c24 0 25 2 25 68 0 70 10 92 42 92 13 0 18
8 18 25 0 27 -10 31 -41 15 -13 -7 -19 -7 -19 0 0 5 -11 10 -25 10 l-25 0 0
-105z"/>
<path d="M4260 5565 l0 -105 25 0 c24 0 25 2 25 68 0 70 10 92 42 92 13 0 18
8 18 25 0 27 -10 31 -41 15 -13 -7 -19 -7 -19 0 0 5 -11 10 -25 10 l-25 0 0
-105z"/>
<path d="M4419 5641 c-39 -39 -41 -106 -5 -148 21 -24 32 -28 74 -28 55 0 89
19 72 41 -9 9 -19 10 -41 2 -24 -8 -35 -7 -57 8 l-27 19 68 3 67 3 0 37 c-1
85 -91 122 -151 63z m82 -21 c34 -19 23 -40 -22 -40 -40 0 -42 4 -16 38 11 15
13 15 38 2z"/>
<path d="M4643 5660 c-12 -5 -27 -18 -33 -29 -10 -19 -8 -21 20 -21 16 0 30 5
30 10 0 6 11 10 25 10 14 0 25 -2 25 -4 0 -2 3 -11 6 -20 5 -12 -1 -16 -24
-16 -87 0 -128 -81 -60 -119 22 -13 33 -13 58 -4 16 6 30 7 30 2 0 -5 12 -9
28 -9 l27 0 -3 85 c-3 77 -6 87 -29 105 -27 21 -63 25 -100 10z m77 -118 c0
-23 -19 -42 -42 -42 -24 0 -34 26 -18 45 18 22 60 19 60 -3z"/>
<path d="M4810 5565 l0 -105 30 0 30 0 0 79 c0 82 9 98 45 85 12 -5 15 -24 15
-85 l0 -79 30 0 30 0 0 79 c0 82 9 98 45 85 12 -5 15 -24 15 -85 l0 -79 31 0
31 0 -3 84 c-3 65 -8 89 -23 105 -23 25 -53 27 -84 5 -20 -14 -24 -14 -38 0
-18 19 -47 20 -77 5 -16 -9 -22 -9 -25 0 -2 6 -15 11 -28 11 -24 0 -24 -1 -24
-105z"/>
<path d="M5510 5657 c-31 -16 -50 -52 -50 -99 0 -51 33 -88 87 -95 37 -5 45
-2 73 25 25 25 30 38 30 77 0 82 -70 128 -140 92z m72 -44 c33 -30 13 -113
-28 -113 -17 0 -44 39 -44 65 0 24 26 65 42 65 6 0 20 -7 30 -17z"/>
<path d="M5730 5657 c-31 -16 -50 -52 -50 -99 0 -51 33 -88 87 -95 37 -5 45
-2 73 25 25 25 30 38 30 77 0 82 -70 128 -140 92z m72 -44 c33 -30 13 -113
-28 -113 -17 0 -44 39 -44 65 0 24 26 65 42 65 6 0 20 -7 30 -17z"/>
<path d="M6204 5653 c3 -10 15 -57 27 -105 19 -78 24 -88 44 -88 19 0 25 10
39 61 10 33 21 58 24 54 4 -3 14 -30 22 -58 12 -40 21 -53 37 -55 23 -3 21 -9
57 134 20 78 20 74 -8 74 -21 0 -25 -7 -36 -66 -14 -72 -20 -70 -40 14 -10 45
-15 53 -33 50 -16 -2 -24 -16 -36 -60 -8 -32 -18 -58 -22 -58 -4 0 -10 21 -14
46 -10 66 -14 74 -42 74 -19 0 -23 -4 -19 -17z"/>
<path d="M6510 5565 l0 -105 25 0 25 0 0 105 0 105 -25 0 -25 0 0 -105z"/>
<path d="M7270 5565 l0 -105 25 0 25 0 0 105 0 105 -25 0 -25 0 0 -105z"/>
<path d="M7590 5565 l0 -105 25 0 c24 0 25 2 25 75 l0 76 30 6 c23 4 30 11 30
29 0 27 -11 30 -43 13 -16 -9 -22 -9 -25 0 -2 6 -12 11 -23 11 -18 0 -19 -8
-19 -105z"/>
<path d="M7770 5663 c-21 -8 -50 -34 -50 -45 0 -12 38 -10 60 4 15 9 25 10 37
2 30 -19 27 -34 -7 -34 -17 0 -45 -7 -61 -16 -26 -13 -30 -20 -27 -52 4 -48
42 -72 88 -55 16 6 30 7 30 2 0 -5 12 -9 26 -9 l26 0 -3 85 c-3 60 -9 89 -20
100 -17 17 -75 28 -99 18z m70 -122 c0 -40 -61 -56 -68 -17 -5 22 13 36 46 36
15 0 22 -6 22 -19z"/>
<path d="M7930 5565 l0 -105 25 0 c24 0 25 2 25 71 0 69 1 71 29 82 33 12 50
57 22 57 -10 0 -23 -6 -30 -12 -11 -10 -14 -10 -18 0 -3 6 -16 12 -29 12 -24
0 -24 -1 -24 -105z"/>
<path d="M8060 5667 c0 -3 16 -48 35 -102 37 -101 38 -130 4 -140 -25 -8 -26
-45 0 -45 38 0 61 35 105 163 l44 127 -28 0 c-25 0 -29 -5 -44 -61 -10 -33
-21 -58 -24 -54 -4 3 -14 30 -22 58 -14 44 -20 52 -43 55 -15 2 -27 1 -27 -1z"/>
<path d="M4007 4873 c-10 -3 -22 -16 -28 -29 -13 -37 -12 -627 2 -658 6 -13
21 -27 33 -30 28 -8 2485 -7 2513 0 41 11 44 42 41 377 -2 243 -6 319 -16 329
-11 11 -254 13 -1270 14 -691 1 -1265 0 -1275 -3z m1443 -268 c0 -33 2 -35 32
-35 47 0 68 -25 68 -78 0 -64 -19 -82 -87 -82 l-53 0 0 115 c0 108 1 115 20
115 16 0 20 -7 20 -35z m510 -27 l0 -62 28 27 c26 25 62 36 62 20 0 -4 -12
-19 -26 -34 l-26 -27 32 -43 c27 -38 29 -44 14 -48 -10 -2 -27 10 -41 28 -31
39 -43 39 -43 1 0 -23 -4 -30 -20 -30 -19 0 -20 7 -20 115 0 108 1 115 20 115
18 0 20 -7 20 -62z m-1474 27 c14 -21 15 -30 5 -52 -8 -18 -9 -29 -1 -37 16
-16 12 -67 -7 -88 -12 -13 -31 -18 -75 -18 l-58 0 0 110 0 110 60 0 c53 0 61
-3 76 -25z m124 -49 c0 -8 -9 -16 -20 -19 -17 -4 -20 -14 -20 -66 0 -54 -2
-61 -20 -61 -18 0 -20 7 -20 79 l0 79 40 0 c27 1 40 -4 40 -12z m145 -6 c11
-12 18 -35 18 -60 0 -53 -25 -80 -73 -80 -48 0 -75 28 -75 80 0 52 27 80 75
80 24 0 43 -7 55 -20z m80 -30 c12 -48 15 -46 35 13 17 53 40 46 59 -18 l14
-50 13 48 c14 56 17 60 37 55 11 -2 10 -17 -10 -81 -29 -93 -48 -99 -71 -22
l-15 50 -17 -50 c-23 -69 -44 -70 -63 -3 -31 107 -31 110 -11 106 12 -2 22
-18 29 -48z m296 40 c10 -6 19 -17 19 -25 0 -17 -26 -20 -35 -5 -3 6 -17 10
-31 10 -35 0 -30 -26 8 -34 40 -8 58 -23 58 -50 0 -31 -19 -46 -59 -46 -36 0
-71 23 -71 47 0 18 29 17 36 -2 7 -17 49 -20 59 -5 3 6 -14 19 -38 29 -56 24
-63 35 -43 66 18 27 61 34 97 15z m162 -7 c8 -10 17 -31 19 -48 3 -30 2 -30
-50 -33 -68 -4 -67 -28 2 -25 25 1 46 -2 46 -6 0 -17 -27 -31 -61 -31 -71 0
-103 86 -53 141 22 24 76 25 97 2z m413 -4 c11 -13 19 -35 19 -59 0 -52 -27
-80 -75 -80 -48 0 -73 27 -73 80 0 53 25 80 73 80 25 0 43 -7 56 -21z m170 0
c11 -13 19 -35 19 -59 0 -52 -27 -80 -75 -80 -48 0 -73 27 -73 80 0 53 25 80
73 80 25 0 43 -7 56 -21z m305 11 c10 -6 19 -17 19 -25 0 -17 -26 -20 -35 -5
-3 6 -17 10 -31 10 -35 0 -30 -26 8 -34 40 -8 58 -23 58 -50 0 -31 -19 -46
-59 -46 -36 0 -71 23 -71 47 0 18 29 17 36 -2 7 -17 49 -20 59 -5 3 6 -14 19
-38 29 -56 24 -63 35 -43 66 18 27 61 34 97 15z"/>
<path d="M5457 4533 c-4 -3 -7 -24 -7 -45 0 -42 20 -59 49 -41 34 22 25 93
-13 93 -12 0 -26 -3 -29 -7z"/>
<path d="M4390 4570 c0 -25 4 -30 24 -30 13 0 29 7 36 15 19 23 4 45 -30 45
-27 0 -30 -3 -30 -30z"/>
<path d="M4390 4475 c0 -32 3 -35 29 -35 35 0 55 22 46 50 -5 15 -15 20 -41
20 -32 0 -34 -2 -34 -35z"/>
<path d="M4664 4515 c-10 -41 3 -75 29 -75 30 0 47 18 47 50 0 52 -64 73 -76
25z"/>
<path d="M5216 4525 c-9 -25 -9 -25 30 -25 28 0 35 3 32 18 -4 23 -53 29 -62
7z"/>
<path d="M5622 4528 c-7 -7 -12 -24 -12 -38 0 -32 17 -50 47 -50 26 0 39 34
29 75 -7 27 -42 35 -64 13z"/>
<path d="M5792 4528 c-7 -7 -12 -24 -12 -38 0 -32 17 -50 47 -50 26 0 39 34
29 75 -7 27 -42 35 -64 13z"/>
<path d="M5287 3797 c-18 -19 -40 -46 -50 -61 -10 -15 -47 -40 -82 -57 -63
-29 -95 -62 -130 -128 -19 -38 -17 -88 9 -177 18 -64 10 -106 -44 -225 -62
-138 -64 -191 -8 -255 29 -33 32 -34 107 -34 42 -1 112 -7 156 -15 44 -8 82
-15 84 -15 2 0 0 32 -3 71 -7 67 -6 71 11 64 41 -17 124 -17 169 0 25 9 47 16
48 14 2 -2 16 -28 31 -58 l27 -54 76 7 c41 3 77 8 80 11 3 2 -3 64 -12 137
-20 165 -20 226 0 345 9 52 14 124 12 160 -5 76 -21 96 -87 107 -26 4 -42 12
-46 25 -11 35 -104 122 -157 146 -35 17 -71 25 -106 25 -48 0 -57 -4 -85 -33z
m213 -388 c19 -6 58 -14 85 -17 l50 -7 3 -56 c8 -144 -137 -264 -276 -230
-102 26 -169 99 -179 196 -3 29 -3 64 1 78 5 23 8 24 38 15 26 -8 43 -6 83 11
56 22 141 27 195 10z m-90 -334 c25 0 56 3 70 7 29 8 43 -7 55 -60 6 -30 4
-33 -29 -47 -73 -31 -186 -12 -186 30 0 12 -3 37 -6 54 -7 31 -6 32 22 24 16
-4 49 -8 74 -8z"/>
<path d="M3222 3630 c30 -58 66 -133 82 -168 16 -35 30 -61 32 -60 2 2 -6 39
-16 82 -24 95 -59 161 -112 212 l-39 39 53 -105z"/>
<path d="M3367 3550 c-4 -14 -7 -61 -7 -105 0 -56 -3 -76 -10 -65 -7 10 -8 -3
-4 -42 5 -39 3 -58 -4 -58 -6 0 -13 8 -16 18 -3 9 -38 73 -77 142 -72 127 -85
126 -33 -4 24 -60 97 -166 114 -166 6 0 10 -15 10 -32 1 -27 6 -18 25 41 19
57 25 93 24 160 -1 47 -4 97 -8 111 l-7 25 -7 -25z"/>
<path d="M3237 3313 c-11 -18 -9 -201 2 -241 6 -19 19 -49 30 -67 11 -19 17
-44 15 -57 -4 -21 -4 -21 5 -3 5 11 19 29 31 40 48 43 100 186 100 270 -1 37
-4 31 -47 -72 -26 -62 -50 -110 -54 -108 -4 3 -10 -12 -15 -33 -6 -32 -11 -15
-33 123 -15 90 -30 155 -34 148z"/>
<path d="M4098 3264 c-29 -9 -54 -24 -64 -39 -21 -32 -15 -45 16 -33 24 10 24
11 5 18 -18 8 -17 9 8 9 15 1 27 6 27 11 0 6 6 10 14 10 14 0 26 -31 25 -65
-1 -13 -4 -9 -8 9 -9 43 -31 46 -27 4 2 -18 1 -23 -1 -10 -6 33 -28 21 -26
-14 3 -27 2 -27 -7 -6 -5 12 -12 22 -15 22 -4 0 -3 -4 0 -10 4 -6 -1 -7 -10
-3 -13 4 -16 1 -13 -18 3 -21 8 -24 41 -23 72 3 119 86 65 115 -22 12 -22 12
-3 20 11 4 29 8 40 8 19 0 19 0 2 -13 -13 -11 -15 -19 -8 -37 9 -23 10 -23 10
-3 1 12 8 27 16 34 13 11 13 15 3 21 -18 12 -35 10 -90 -7z"/>
<path d="M3332 3165 c0 -16 2 -22 5 -12 2 9 2 23 0 30 -3 6 -5 -1 -5 -18z"/>
<path d="M3321 3114 c0 -11 3 -14 6 -6 3 7 2 16 -1 19 -3 4 -6 -2 -5 -13z"/>
<path d="M3205 3026 c-11 -72 -1 -178 20 -210 10 -15 21 -23 24 -19 3 5 20 15
38 22 17 7 48 29 68 49 43 43 99 121 92 128 -10 10 -71 -29 -123 -78 l-52 -49
-6 28 c-3 15 -10 53 -16 84 -6 31 -17 65 -24 75 -13 17 -15 14 -21 -30z"/>
<path d="M3100 2842 c0 -59 24 -156 51 -200 10 -18 19 -41 19 -50 0 -11 3 -13
8 -6 4 7 28 22 54 34 45 21 168 139 168 160 0 36 -99 -25 -167 -103 -19 -22
-34 -31 -37 -24 -3 8 -5 7 -6 -3 -1 -8 -8 21 -14 65 -13 84 -47 175 -65 175
-6 0 -11 -21 -11 -48z"/>
<path d="M5700 2745 c-258 -40 -294 -42 -339 -14 -37 23 -66 25 -329 33 l-153
5 5 -117 c10 -198 28 -387 40 -394 15 -11 136 -10 136 1 0 4 11 6 25 4 21 -5
27 1 48 49 29 64 82 128 107 128 25 0 33 -29 28 -113 l-3 -72 50 -3 c29 -2 58
-10 69 -20 14 -13 36 -17 98 -15 44 1 82 4 85 7 3 3 0 42 -7 88 -14 94 -4 138
29 138 27 0 75 -61 107 -136 24 -58 29 -62 63 -67 33 -4 150 9 159 18 9 8 14
515 6 514 -5 -1 -106 -16 -224 -34z m118 -132 l-3 -38 -65 -7 c-36 -4 -89 -9
-117 -12 l-53 -6 0 39 0 39 83 10 c45 5 99 10 120 11 l38 1 -3 -37z"/>
<path d="M3050 2607 c0 -80 4 -101 25 -143 14 -27 25 -56 25 -64 0 -10 3 -11
8 -4 4 6 23 14 43 18 20 3 61 24 91 46 54 38 115 106 105 117 -11 10 -80 -20
-143 -63 -35 -24 -64 -38 -64 -31 0 9 -2 9 -9 -1 -5 -8 -10 14 -14 57 -6 72
-37 161 -56 161 -7 0 -11 -34 -11 -93z"/>
<path d="M3151 2539 c-6 -18 -9 -34 -7 -36 2 -2 9 10 15 28 6 18 9 34 7 36 -2
2 -9 -10 -15 -28z"/>
<path d="M2906 2483 c26 -118 54 -188 97 -239 l25 -29 -25 -68 c-14 -37 -29
-67 -33 -67 -4 0 -11 24 -14 53 -12 89 -66 187 -104 187 -35 0 9 -171 68 -264
29 -44 30 -51 19 -85 -18 -57 -20 -56 -45 6 -26 64 -90 133 -124 133 -17 0
-19 -4 -14 -27 25 -105 73 -199 118 -228 23 -16 23 -16 9 -75 l-15 -59 -43 44
c-29 29 -55 46 -80 51 -40 7 -103 0 -117 -14 -11 -11 61 -94 105 -121 18 -11
52 -23 76 -27 l43 -7 -6 -46 c-4 -25 -9 -59 -12 -74 l-6 -29 -25 36 c-28 39
-94 76 -136 76 -31 0 -77 -16 -77 -28 0 -5 17 -28 37 -52 40 -47 121 -90 168
-90 l30 0 -3 -66 c-4 -63 -5 -65 -22 -49 -33 30 -108 46 -154 34 -44 -12 -96
-39 -96 -50 0 -4 25 -20 55 -35 58 -28 114 -34 176 -20 l37 8 4 -74 c3 -40 4
-74 3 -76 -1 -1 -24 7 -50 19 -36 16 -59 20 -92 15 -48 -6 -123 -41 -123 -57
0 -5 24 -21 53 -34 57 -27 124 -32 176 -14 19 7 36 8 41 3 4 -5 11 -36 15 -70
l7 -60 -49 0 c-34 0 -61 -7 -86 -23 -38 -23 -93 -103 -83 -120 10 -16 75 -22
116 -11 23 6 58 27 80 46 l38 34 21 -69 c12 -38 21 -71 21 -74 0 -3 -17 -3
-37 0 -52 6 -101 -23 -137 -81 -16 -25 -26 -50 -22 -54 4 -4 34 -7 67 -7 54 0
58 -2 52 -20 -36 -114 -29 -237 21 -335 l22 -44 320 -77 319 -78 646 0 647 -1
12 48 c6 26 20 65 29 88 l18 41 137 38 136 39 135 -32 136 -32 412 164 c457
182 663 269 689 293 23 20 23 40 0 52 -13 7 -143 -45 -562 -224 -300 -129
-550 -234 -556 -235 -17 0 -44 74 -53 149 -10 79 0 164 29 240 l21 57 202 58
c196 57 472 140 707 212 219 68 243 82 205 114 -12 10 -8 15 28 34 23 11 42
27 42 35 0 42 -27 36 -586 -142 -304 -97 -554 -175 -556 -173 -2 2 -13 30 -25
62 -28 81 -28 204 1 297 12 37 26 67 31 67 5 0 46 -9 92 -20 103 -25 151 -25
174 -3 29 29 46 82 39 124 -6 33 -3 40 19 54 14 10 56 21 94 25 37 5 99 19
137 33 43 15 84 22 106 20 24 -3 88 11 200 46 213 66 263 85 267 105 4 20 -21
30 -113 45 -135 22 -122 13 -127 91 -4 77 -25 110 -85 135 -70 29 -131 28
-293 -5 -106 -22 -168 -30 -195 -25 -54 8 -295 25 -485 34 -150 7 -157 6 -203
-17 -47 -22 -49 -22 -54 -4 -4 16 -24 23 -121 38 l-117 19 -600 -107 c-754
-135 -718 -128 -732 -140 -21 -17 -45 -102 -50 -184 -5 -66 -2 -95 15 -150 33
-108 33 -108 188 -144 74 -18 133 -34 131 -37 -3 -2 -76 -17 -164 -32 -88 -15
-165 -31 -170 -34 -22 -14 -45 -104 -50 -192 -4 -83 5 -146 31 -206 7 -16 -36
-27 -213 -55 l-45 -7 22 23 c33 35 27 47 -29 65 -64 21 -112 13 -151 -25 -18
-19 -30 -25 -33 -17 -10 29 -35 121 -35 127 0 4 33 5 73 2 80 -5 113 6 155 51
l23 25 -37 23 c-24 14 -58 24 -93 27 -48 3 -62 0 -95 -23 -21 -14 -40 -25 -41
-23 -3 4 -25 130 -25 145 0 6 23 4 59 -6 49 -12 67 -13 115 -2 31 7 69 23 84
36 l27 23 -55 26 c-70 33 -123 33 -186 1 -27 -14 -50 -25 -51 -25 -2 0 -3 35
-3 79 l0 79 41 -15 c26 -8 57 -11 83 -8 52 8 131 47 131 65 0 7 -18 22 -39 33
-52 27 -124 26 -171 -2 -20 -11 -38 -21 -41 -21 -2 0 -4 26 -4 59 l0 59 63 -1
c51 -1 71 4 114 27 29 16 62 40 75 53 26 28 20 35 -44 54 -51 16 -100 4 -154
-37 l-47 -36 8 69 c4 37 10 71 14 75 3 4 24 3 44 -3 29 -8 50 -7 90 5 52 15
137 69 137 87 0 14 -80 49 -110 49 -32 0 -98 -31 -127 -59 -27 -25 -28 -17
-10 54 l13 50 51 6 c28 4 73 19 100 33 63 35 140 102 130 112 -5 5 -32 9 -60
8 -56 -1 -112 -24 -167 -71 l-33 -28 6 32 c12 60 35 103 55 103 37 0 157 69
206 119 l49 50 -26 6 c-39 10 -91 -11 -164 -68 -43 -32 -64 -43 -59 -31 5 10
15 38 23 62 13 38 20 43 59 53 55 14 145 72 199 128 l39 41 -42 0 c-47 0 -106
-26 -164 -72 -21 -16 -38 -28 -38 -25 0 2 7 24 15 47 22 62 12 60 -12 -2 l-20
-52 -18 54 c-26 81 -50 124 -85 154 -40 33 -52 33 -44 -1z m1674 -713 c0 -53
50 -163 92 -201 47 -45 23 -50 -101 -23 -58 12 -217 47 -353 76 -137 29 -248
55 -248 58 0 4 565 126 598 129 8 1 12 -13 12 -39z m446 -344 c22 -8 66 -30
98 -50 33 -20 98 -48 145 -62 75 -23 83 -28 68 -39 -10 -7 -65 -16 -125 -20
-92 -6 -114 -11 -158 -36 -30 -17 -59 -27 -68 -23 -9 3 -16 1 -16 -6 0 -6 -10
-10 -22 -8 -23 3 -23 5 -20 113 5 144 17 160 98 131z m-668 -392 c310 -73 363
-91 271 -93 -21 -1 -610 122 -699 145 -22 6 -19 8 25 19 28 7 55 12 60 10 6
-1 160 -37 343 -81z m-455 -491 l329 -78 -69 -20 -68 -21 -105 22 c-58 13
-216 47 -352 76 -137 29 -248 56 -248 59 0 5 130 34 170 38 8 1 163 -33 343
-76z"/>
<path d="M5021 2135 c-28 -19 -57 -35 -65 -35 -7 0 -16 -10 -20 -22 -10 -37
-7 -40 18 -21 39 31 129 113 123 113 -3 0 -28 -16 -56 -35z"/>
<path d="M5780 2150 c0 -5 5 -10 11 -10 5 0 7 5 4 10 -3 6 -8 10 -11 10 -2 0
-4 -4 -4 -10z"/>
<path d="M5840 2133 c0 -4 14 -24 30 -43 l30 -35 -11 33 c-10 29 -49 65 -49
45z"/>
<path d="M7397 503 c-15 -24 -27 -49 -27 -57 0 -8 20 -24 45 -35 59 -26 57
-41 -5 -41 -38 0 -50 -4 -50 -15 0 -13 25 -15 166 -15 128 0 165 3 162 13 -3
7 -28 14 -59 17 l-54 5 29 23 c16 12 37 22 47 22 26 0 25 36 -3 80 l-21 35
-11 -31 c-15 -42 -78 -133 -93 -134 -19 0 -86 100 -93 139 l-6 36 -27 -42z"/>
<path d="M7438 293 c45 -2 119 -2 165 0 45 1 8 3 -83 3 -91 0 -128 -2 -82 -3z"/>
<path d="M7370 246 c0 -49 22 -181 32 -193 12 -15 214 -18 236 -4 8 5 17 41
23 87 5 43 11 91 14 107 l5 27 -155 0 -155 0 0 -24z"/>
<path d="M5730 94 l-215 -93 85 -1 c75 0 95 4 165 34 220 94 249 112 225 141
-7 8 -20 15 -29 14 -9 0 -113 -43 -231 -95z"/>
</g>
</svg>
